<svg width="371" height="68" viewBox="0 0 371 68" fill="none" xmlns="http://www.w3.org/2000/svg">
<g clip-path="url(#clip0_1098_3493)">
<path d="M0 0.944458H15.8446C26.7254 0.944458 31.4029 5.9517 31.4029 16.1495V18.7941C31.4029 25.594 29.3009 29.844 24.6297 31.736V31.9255C30.2608 33.8144 32.4562 38.7253 32.4562 45.7147V51.3813C32.4562 61.5815 27.0159 67.0594 16.5166 67.0594H0.00387745L0 0.944458ZM14.6037 27.8611C18.5174 27.8611 20.9036 26.161 20.9036 20.8718V17.1857C20.9036 12.4635 19.2811 10.3858 15.5582 10.3858H10.4977V27.8581L14.6037 27.8611ZM16.5126 57.6111C20.0441 57.6111 21.953 56.005 21.953 51.094V45.3334C21.953 39.1945 19.9491 37.3056 15.1798 37.3056H10.5024V57.6111H16.5126Z" fill="white"/>
<path d="M38.1782 51.3775V0.944458H48.6744V52.1332C48.6744 56.8554 50.6791 58.5556 54.0198 58.5556C57.3605 58.5556 59.3644 56.8554 59.3644 52.1332V0.944458H69.4853V51.3775C69.4853 61.9551 64.1399 68 53.8322 68C43.5244 68 38.1782 61.9551 38.1782 51.3775Z" fill="white"/>
<path d="M76.9297 0.944458H87.429V57.6111H104.705V67.0556H76.9297V0.944458Z" fill="white"/>
<path d="M109.764 0.944458H120.263V57.6111H137.539V67.0556H109.764V0.944458Z" fill="white"/>
<path d="M153.574 0.944458H169.419C180.3 0.944458 184.977 5.9517 184.977 16.1495V18.7941C184.977 25.594 182.875 29.844 178.2 31.736V31.9255C183.831 33.8144 186.027 38.7253 186.027 45.7147V51.3813C186.027 61.5815 180.586 67.0594 170.087 67.0594H153.574V0.944458ZM168.179 27.8611C172.093 27.8611 174.479 26.161 174.479 20.8718V17.1857C174.479 12.4635 172.856 10.3858 169.134 10.3858H164.073V27.8581L168.179 27.8611ZM170.088 57.6111C173.62 57.6111 175.529 56.005 175.529 51.094V45.3334C175.529 39.1945 173.525 37.3056 168.756 37.3056H164.078V57.6111H170.088Z" fill="white"/>
<path d="M192.135 0.944458H202.634V67.0556H192.135V0.944458Z" fill="white"/>
<path d="M218.668 10.3889H207.69V0.944458H240.143V10.3889H229.165V67.0556H218.666L218.668 10.3889Z" fill="white"/>
<path d="M244.152 51.7549V16.242C244.152 6.04183 249.498 -0.00231934 259.615 -0.00231934C269.732 -0.00231934 275.077 6.04183 275.077 16.242V23.2306H265.151V15.581C265.151 11.2363 263.049 9.44213 259.901 9.44213C256.754 9.44213 254.652 11.2363 254.652 15.581V52.5083C254.652 56.8531 256.754 58.5532 259.901 58.5532C263.049 58.5532 265.151 56.8531 265.151 52.5083V42.4052H275.077V51.7549C275.077 61.9551 269.733 68 259.615 68C249.497 68 244.152 61.9551 244.152 51.7549Z" fill="white"/>
<path d="M280.804 51.3775V16.6218C280.804 6.04414 286.435 0 296.744 0C307.052 0 312.684 6.04414 312.684 16.6218V51.3775C312.684 61.9551 307.052 68 296.744 68C286.435 68 280.804 61.9551 280.804 51.3775ZM302.184 52.0384V15.9608C302.184 11.2386 300.082 9.44442 296.744 9.44442C293.406 9.44442 291.304 11.2386 291.304 15.9608V52.0384C291.304 56.7607 293.406 58.5555 296.744 58.5555C300.082 58.5555 302.184 56.7607 302.184 52.0384Z" fill="white"/>
<path d="M319.746 0.944458H330.245V67.0556H319.746V0.944458Z" fill="white"/>
<path d="M338.07 0.944458H351.242L361.455 40.5164H361.647V0.944458H371V67.0556H360.214L347.615 18.7941H347.424V67.0556H338.07V0.944458Z" fill="white"/>
</g>
<defs>
<clipPath id="clip0_1098_3493">
<rect width="371" height="68" fill="white"/>
</clipPath>
</defs>
</svg>
